<svg xmlns="http://www.w3.org/2000/svg" xmlns:xlink="http://www.w3.org/1999/xlink" style="display:none">
   <!-- Twitch -->
  <symbol id="icon-twitch" viewBox="0 0 512 512">
    <path d="M80 0L32 96v352h128v64h64l64-64h96l128-128V0H80zm352 288l-64 64h-96l-64 64v-64H96V48h336v240z" fill="#9146FF"/>
    <path d="M320 128h32v128h-32V128zm-96 0h32v128h-32V128z" fill="#C084FC"/>
  </symbol>

  <!-- GitHub -->
  <symbol id="icon-github" viewBox="0 0 24 24">
    <path fill="currentColor" d="M12 .5A12 12 0 0 0 0 12.6c0 5.3 3.4 9.8 8.2 11.4.6.1.8-.3.8-.6v-2.2c-3.3.7-4-1.4-4-1.4-.5-1.1-1.2-1.4-1.2-1.4-1-.7.1-.7.1-.7 1.1.1 1.7 1.1 1.7 1.1 1 .1.7 2.2 2.7 1.7.1-.8.4-1.4.8-1.7-2.6-.3-5.4-1.4-5.4-6.1 0-1.3.5-2.3 1.2-3.1-.1-.3-.5-1.4.1-2.9 0 0 1-.3 3.2 1.2a11 11 0 0 1 5.8 0c2.2-1.5 3.2-1.2 3.2-1.2.6 1.5.2 2.6.1 2.9.8.8 1.2 1.8 1.2 3.1 0 4.7-2.8 5.8-5.4 6.1.5.4.9 1.2.9 2.3v3.4c0 .3.2.7.8.6A12 12 0 0 0 24 12.6 12 12 0 0 0 12 .5z"/>
  </symbol>

  <!-- Instagram -->
  <symbol id="icon-instagram" viewBox="0 0 24 24">
    <path fill="currentColor" d="M7.5 2h9A5.5 5.5 0 0 1 22 7.5v9a5.5 5.5 0 0 1-5.5 5.5h-9A5.5 5.5 0 0 1 2 16.5v-9A5.5 5.5 0 0 1 7.5 2zm0 2A3.5 3.5 0 0 0 4 7.5v9A3.5 3.5 0 0 0 7.5 20h9a3.5 3.5 0 0 0 3.5-3.5v-9A3.5 3.5 0 0 0 16.5 4h-9zm9.25 1.5a1.25 1.25 0 1 1 0 2.5 1.25 1.25 0 0 1 0-2.5zM12 7a5 5 0 1 1 0 10 5 5 0 0 1 0-10zm0 2a3 3 0 1 0 0 6 3 3 0 0 0 0-6z"/>
  </symbol>

  <!-- YouTube -->
  <symbol id="icon-youtube" viewBox="0 0 576 512">
    <path fill="currentColor" d="M549.7 124.1c-6.3-23.7-24.9-42.3-48.6-48.6C456.7 64 288 64 288 64s-168.7 0-213.1 11.5c-23.7 6.3-42.3 24.9-48.6 48.6C16 168.5 16 256 16 256s0 87.5 10.3 131.9c6.3 23.7 24.9 42.3 48.6 48.6C119.3 448 288 448 288 448s168.7 0 213.1-11.5c23.7-6.3 42.3-24.9 48.6-48.6 10.3-44.4 10.3-131.9 10.3-131.9s0-87.5-10.3-131.9zM232 336V176l142 80-142 80z"/>
  </symbol>

  <!-- X (Twitter) -->
  <symbol id="icon-x" viewBox="0 0 24 24">
    <path fill="currentColor" d="M20.52 3h2.31l-7.87 9.02L23.5 21h-7.12l-5.6-6.77L4.2 21H1.88l8.4-9.64L.5 3h7.3l5.04 6.2L20.52 3zM19.1 19h1.26l-6.22-7.42L5.95 5H4.63l6.59 7.86L19.1 19z"/>
  </symbol>

  <!-- LinkedIn -->
  <symbol id="icon-linkedin" viewBox="0 0 448 512">
    <path fill="currentColor" d="M100.3 448H7.4V148.9h92.9zm-46.4-341C24.1 107 0 82.6 0 54.5 0 24.4 24.6 0 55.6 0c31.3 0 55.6 24.4 55.6 54.5 0 28.1-24.3 52.5-55.6 52.5zM447.9 448h-92.4V302.4c0-34.7-12.4-58.4-43.3-58.4-23.6 0-37.7 15.9-43.9 31.2-2.2 5.3-2.8 12.6-2.8 20v152.8h-92.4s1.2-247.9 0-273.9h92.4v38.8c-.2.3-.5.7-.7 1h.7v-1c12.3-19 34.2-46 83.3-46 60.9 0 106.6 39.8 106.6 125.3V448z"/>
  </symbol>

   <!-- React.js -->
  <symbol id="icon-react" viewBox="0 0 841.9 595.3">
        <g fill="none" stroke="currentColor" stroke-width="40">
            <ellipse rx="165" ry="381" transform="rotate(60 420.9 296.5)" cx="420.9" cy="296.5" />
            <ellipse rx="165" ry="381" transform="rotate(120 420.9 296.5)" cx="420.9" cy="296.5" />
            <ellipse rx="165" ry="381" cx="420.9" cy="296.5" />
        </g>
        <circle fill="currentColor" cx="420.9" cy="296.5" r="50" />
    </symbol>

    <!-- Node.js -->
    <symbol id="icon-nodejs" viewBox="0 0 256 256">
        <rect width="256" height="256" fill="#393" rx="32"/>
        <text x="50%" y="50%" text-anchor="middle" fill="#fff" font-size="56" font-family="Arial, Helvetica, sans-serif" font-weight="bold" dy=".35em">Node.js</text>
    </symbol>

    <!-- HTML5 -->
    <symbol id="icon-html5" viewBox="0 0 384 512">
        <path fill="#E44D26" d="M0 32l34.9 403.4L191.8 480l156.9-44.6L384 32H0zm313.6 96l-13.7 154.7-1 11.2H192v.1h-.1l-61.7-17.1-4.2-47.2h38.7l2.1 23.7 25.1 6.8v-.1h.1l25.1-6.8 2.6-29.2H96.7l-4.2-47.2h198.9l-4.2 47.2H192l-2.6 29.2 25.1 6.8v-.1h.1l25.1-6.8 2.1-23.7h38.7l-4.2 47.2-61.7 17.1v.1h-.1l-61.7-17.1-13.7-154.7h198.9z"/>
        <path fill="#F16529" d="M192 454.6l-124.2-35.3L44.8 64h294.4l-23 255.3L192 454.6z"/>
        <path fill="#EBEBEB" d="M192 208.1h-61.7l4.2 47.2 57.5 15.9v-63.1zm0-63.1h-66.7l4.2 47.2h62.5v-47.2zm0 126.2v63.1l57.5-15.9 4.2-47.2H192zm0-63.1v47.2h62.5l4.2-47.2H192z"/>
    </symbol>

    <!-- CSS3 -->
    <symbol id="icon-css3" viewBox="0 0 384 512">
        <path fill="#1572B6" d="M0 32l34.9 403.4L191.8 480l156.9-44.6L384 32H0zm313.6 96l-13.7 154.7-1 11.2H192v.1h-.1l-61.7-17.1-4.2-47.2h38.7l2.1 23.7 25.1 6.8v-.1h.1l25.1-6.8 2.6-29.2H96.7l-4.2-47.2h198.9l-4.2 47.2H192l-2.6 29.2 25.1 6.8v-.1h.1l25.1-6.8 2.1-23.7h38.7l-4.2 47.2-61.7 17.1v.1h-.1l-61.7-17.1-13.7-154.7h198.9z"/>
        <path fill="#33A9DC" d="M192 454.6l-124.2-35.3L44.8 64h294.4l-23 255.3L192 454.6z"/>
        <path fill="#fff" d="M192 208.1h-61.7l4.2 47.2 57.5 15.9v-63.1zm0-63.1h-66.7l4.2 47.2h62.5v-47.2zm0 126.2v63.1l57.5-15.9 4.2-47.2H192zm0-63.1v47.2h62.5l4.2-47.2H192z"/>
    </symbol>
</svg>
